<svg xmlns="http://www.w3.org/2000/svg" viewBox="0 0 256 256">
  <defs>
    <radialGradient id="g1" cx="50%" cy="45%" r="60%">
      <stop offset="0%" stop-color="#2d7dec"/>
      <stop offset="60%" stop-color="#1c69d4"/>
      <stop offset="100%" stop-color="#0f4aa0"/>
    </radialGradient>
    <linearGradient id="g2" x1="0" y1="0" x2="1" y2="1">
      <stop offset="0%" stop-color="#ff2d95"/>
      <stop offset="60%" stop-color="#b030ff"/>
      <stop offset="100%" stop-color="#7a2cff"/>
    </linearGradient>
  </defs>
  <rect x="12" y="12" width="232" height="232" rx="44" fill="#0f1420" stroke="#2b3442" stroke-width="6"/>
  <circle cx="128" cy="132" r="78" fill="url(#g1)"/>
  <path d="M78 58 L102 78 L114 56" fill="url(#g2)"/>
  <path d="M178 58 L154 78 L142 56" fill="url(#g2)"/>
  <path d="M128 70a56 56 0 1 1-0.1 112H128a56 56 0 1 1 0-112zm0 22a34 34 0 1 0 0 68h8v-18h-8a16 16 0 1 1 0-32h18v-18h-18z" fill="#0b0f14"/>
</svg>
